<svg width="28" height="24" viewBox="0 0 28 24" fill="none" xmlns="http://www.w3.org/2000/svg">
<path d="M24.3134 3.37833C23.7175 2.78217 23.01 2.30925 22.2313 1.98659C21.4526 1.66394 20.618 1.49786 19.7751 1.49786C18.9322 1.49786 18.0975 1.66394 17.3188 1.98659C16.5401 2.30925 15.8326 2.78217 15.2367 3.37833L14.0001 4.61499L12.7634 3.37833C11.5597 2.17469 9.92726 1.49849 8.22506 1.49849C6.52285 1.49849 4.89036 2.17469 3.68672 3.37833C2.48308 4.58197 1.80688 6.21446 1.80688 7.91666C1.80688 9.61887 2.48308 11.2514 3.68672 12.455L4.92339 13.6917L14.0001 22.7683L23.0767 13.6917L24.3134 12.455C24.9096 11.8591 25.3825 11.1516 25.7051 10.3729C26.0278 9.59421 26.1939 8.75956 26.1939 7.91666C26.1939 7.07376 26.0278 6.23911 25.7051 5.46041C25.3825 4.68171 24.9096 3.97421 24.3134 3.37833V3.37833Z" fill="#B45EC9" stroke="#B45EC9" stroke-width="2" stroke-linecap="round" stroke-linejoin="round"/>
</svg>
