<svg width="39" height="39" viewBox="0 0 39 39" fill="none" xmlns="http://www.w3.org/2000/svg">
<path d="M2 34.7251V14.9513C2 14.3689 2.14333 13.8176 2.43 13.2974C2.71667 12.7772 3.11167 12.3487 3.615 12.012L17.0775 2.73481C17.7825 2.24494 18.5875 2 19.4925 2C20.3975 2 21.2075 2.24494 21.9225 2.73481L35.385 12.0098C35.89 12.3464 36.285 12.7756 36.57 13.2974C36.8567 13.8176 37 14.3689 37 14.9513V34.7251C37 35.3347 36.7508 35.8663 36.2525 36.3198C35.7542 36.7733 35.17 37 34.5 37H26.04C25.4667 37 24.9867 36.8241 24.6 36.4722C24.2133 36.1188 24.02 35.682 24.02 35.1618V24.3126C24.02 23.7924 23.8267 23.3564 23.44 23.0045C23.0517 22.6512 22.5717 22.4745 22 22.4745H17C16.4283 22.4745 15.9492 22.6512 15.5625 23.0045C15.1742 23.3564 14.98 23.7924 14.98 24.3126V35.1641C14.98 35.6843 14.7867 36.1204 14.4 36.4722C14.0133 36.8241 13.5342 37 12.9625 37H4.5C3.83 37 3.24583 36.7733 2.7475 36.3198C2.24917 35.8663 2 35.3347 2 34.7251Z" stroke="#B45EC9" stroke-width="3"/>
</svg>
