<svg width="19" height="20" viewBox="0 0 19 20" fill="none" xmlns="http://www.w3.org/2000/svg">
<path d="M1 16.9493V7.31208C1 7.02824 1.06962 6.75955 1.20886 6.50602C1.3481 6.25249 1.53995 6.04367 1.78443 5.87958L8.32336 1.35812C8.66579 1.11938 9.05679 1 9.49636 1C9.93593 1 10.3294 1.11938 10.6766 1.35812L17.2156 5.87847C17.4609 6.04257 17.6527 6.25175 17.7911 6.50602C17.9304 6.75955 18 7.02824 18 7.31208V16.9493C18 17.2464 17.879 17.5055 17.6369 17.7265C17.3949 17.9475 17.1111 18.058 16.7857 18.058H12.6766C12.3981 18.058 12.165 17.9723 11.9771 17.8008C11.7893 17.6286 11.6954 17.4157 11.6954 17.1622V11.8746C11.6954 11.621 11.6015 11.4085 11.4137 11.237C11.2251 11.0648 10.992 10.9787 10.7143 10.9787H8.28571C8.00805 10.9787 7.77531 11.0648 7.5875 11.237C7.39888 11.4085 7.30457 11.621 7.30457 11.8746V17.1633C7.30457 17.4168 7.21067 17.6293 7.02286 17.8008C6.83505 17.9723 6.60231 18.058 6.32464 18.058H2.21429C1.88886 18.058 1.60512 17.9475 1.36307 17.7265C1.12102 17.5055 1 17.2464 1 16.9493Z" stroke="#B45EC9" stroke-width="2"/>
</svg>
