<svg width="32" height="32" viewBox="0 0 32 32" fill="none" xmlns="http://www.w3.org/2000/svg">
<path d="M15.333 4C17.8083 4 20.1823 5.05595 21.9326 6.93457C23.6828 8.81318 24.666 11.3609 24.666 14.0176C24.666 21.5306 15.333 29.0439 15.333 29.0439C15.3181 29.0319 6 21.5246 6 14.0176C6 11.361 6.98335 8.81316 8.7334 6.93457C10.4836 5.05601 12.8578 4.00007 15.333 4ZM15.5254 9.16016C13.1398 9.16016 11.2051 11.0289 11.2051 13.334C11.2051 15.6392 13.1397 17.5078 15.5254 17.5078C17.9108 17.5076 19.8447 15.639 19.8447 13.334C19.8447 11.029 17.9108 9.16041 15.5254 9.16016Z" fill="#B45EC9"/>
</svg>
