<svg width="24" height="24" viewBox="0 0 24 24" fill="none" xmlns="http://www.w3.org/2000/svg">
<path d="M12 1.99951L12 1.24951H12V1.99951ZM17.3027 4.34229L17.8499 3.82935L17.8499 3.82933L17.3027 4.34229ZM19.499 9.99951H20.249V9.99949L19.499 9.99951ZM12 21.9995L11.5315 22.5852C11.8056 22.8045 12.1953 22.8043 12.4692 22.5846L12 21.9995ZM4.5 9.99951L3.75 9.99949V9.99951H4.5ZM6.69629 4.34229L6.14913 3.82934L6.14912 3.82935L6.69629 4.34229ZM12.1367 6.65283L12.1368 5.90283H12.1367V6.65283ZM8.66504 9.98682H7.91504V9.98691L8.66504 9.98682ZM12.1367 13.3198V14.0698H12.1368L12.1367 13.3198ZM15.6074 9.98682L16.3574 9.98691V9.98682H15.6074ZM12 1.99951L12 2.74951C13.7737 2.74961 15.4857 3.50065 16.7556 4.85524L17.3027 4.34229L17.8499 3.82933C16.3071 2.18373 14.2038 1.24963 12 1.24951L12 1.99951ZM17.3027 4.34229L16.7556 4.85522C18.0271 6.21159 18.749 8.06155 18.749 9.99953L19.499 9.99951L20.249 9.99949C20.249 7.69408 19.3912 5.47352 17.8499 3.82935L17.3027 4.34229ZM19.499 9.99951H18.749C18.749 12.708 17.0432 15.5185 15.1978 17.7399C13.3776 19.9311 11.5466 21.4017 11.5308 21.4144L12 21.9995L12.4692 22.5846C12.5207 22.5433 14.4392 21.0005 16.3517 18.6984C18.239 16.4265 20.249 13.264 20.249 9.99951H19.499ZM12 21.9995C12.4685 21.4139 12.4686 21.4139 12.4687 21.414C12.4687 21.414 12.4688 21.414 12.4687 21.414C12.4687 21.414 12.4685 21.4139 12.4683 21.4137C12.4677 21.4132 12.4668 21.4124 12.4653 21.4113C12.4625 21.409 12.4579 21.4053 12.4516 21.4001C12.4389 21.3899 12.4195 21.374 12.3936 21.3526C12.3419 21.3099 12.2648 21.2454 12.1658 21.1605C11.9678 20.9908 11.6828 20.7401 11.3399 20.42C10.653 19.7789 9.73855 18.8643 8.82616 17.7694C6.9718 15.5442 5.25 12.7206 5.25 9.99951H4.5H3.75C3.75 13.2786 5.7782 16.4549 7.67384 18.7297C8.63645 19.8848 9.59703 20.8452 10.3164 21.5166C10.6766 21.8527 10.9775 22.1176 11.1896 22.2994C11.2958 22.3904 11.3797 22.4606 11.4379 22.5087C11.467 22.5328 11.4897 22.5513 11.5054 22.5641C11.5133 22.5705 11.5194 22.5755 11.5238 22.579C11.526 22.5807 11.5277 22.5821 11.529 22.5832C11.5296 22.5837 11.5302 22.5841 11.5306 22.5844C11.5308 22.5846 11.531 22.5848 11.5311 22.5849C11.5313 22.585 11.5315 22.5852 12 21.9995ZM4.5 9.99951L5.25 9.99953C5.25005 8.06155 5.97195 6.21159 7.24346 4.85522L6.69629 4.34229L6.14912 3.82935C4.60782 5.47352 3.75006 7.69408 3.75 9.99949L4.5 9.99951ZM6.69629 4.34229L7.24345 4.85523C8.51342 3.50055 10.226 2.74951 12 2.74951V1.99951V1.24951C9.79607 1.24951 7.69204 2.18351 6.14913 3.82934L6.69629 4.34229ZM12.1367 6.65283V5.90283C9.83437 5.90283 7.91504 7.7033 7.91504 9.98682H8.66504H9.41504C9.41504 8.58836 10.605 7.40283 12.1367 7.40283V6.65283ZM8.66504 9.98682L7.91504 9.98691C7.91532 12.2704 9.83471 14.0698 12.1367 14.0698V13.3198V12.5698C10.605 12.5698 9.41521 11.3849 9.41504 9.98672L8.66504 9.98682ZM12.1367 13.3198L12.1368 14.0698C14.4388 14.0696 16.3571 12.2701 16.3574 9.98691L15.6074 9.98682L14.8574 9.98672C14.8573 11.385 13.6681 12.5697 12.1367 12.5698L12.1367 13.3198ZM15.6074 9.98682H16.3574C16.3574 7.7036 14.4392 5.90301 12.1368 5.90283L12.1367 6.65283L12.1367 7.40283C13.6681 7.40295 14.8574 8.58824 14.8574 9.98682H15.6074Z" fill="#686868"/>
</svg>
