<svg width="102" height="39" viewBox="0 0 102 39" fill="none" xmlns="http://www.w3.org/2000/svg">
<path d="M52.4579 18.1405C52.4579 17.3371 51.7991 16.6817 50.9821 16.6817H47.3716V9.84832C47.3716 9.04489 46.7129 8.38947 45.8958 8.38947C45.0788 8.38947 44.42 9.04066 44.42 9.84832V23.0541C43.6842 23.7814 41.7336 25.4728 38.6707 26.327C36.1297 27.0374 32.4979 27.2108 30.9194 27.2446V11.8907H40.0054C40.8181 11.8907 41.4812 11.2395 41.4812 10.4319C41.4812 9.6242 40.8224 8.97301 40.0054 8.97301H29.4436C28.6308 8.97301 27.9678 9.6242 27.9678 10.4319V28.6908C27.9678 29.4688 28.5838 30.1073 29.3709 30.1454C29.4222 30.1454 29.7644 30.1623 30.3248 30.1623C31.9204 30.1623 36.2196 30.0355 39.4664 29.1263C41.5368 28.547 43.1837 27.659 44.4114 26.8175V29.7733C44.4114 30.5767 45.0702 31.2321 45.8873 31.2321C46.7043 31.2321 47.3631 30.5809 47.3631 29.7733V19.5867H50.9735C51.7863 19.5867 52.4493 18.9355 52.4493 18.1278L52.4579 18.1405Z" fill="#262627"/>
<path d="M65.2784 28.306C65.2784 28.306 63.2978 27.0416 61.8477 25.4559C60.7141 24.217 60.1622 22.3353 60.0253 21.8194V9.84832C60.0253 9.04489 59.3666 8.38947 58.5495 8.38947C57.7325 8.38947 57.0737 9.04066 57.0737 9.84832V21.8151C56.9368 22.331 56.385 24.2127 55.2514 25.4517C53.8098 27.029 51.8634 28.2764 51.8206 28.3018C51.1362 28.7373 50.9351 29.638 51.3757 30.3145C51.6581 30.7501 52.1329 30.9869 52.6206 30.9869C52.8943 30.9869 53.1681 30.9108 53.4119 30.7585C53.5061 30.6993 55.7177 29.2912 57.4373 27.4095C57.8694 26.9359 58.2372 26.4116 58.5452 25.883C58.8575 26.4116 59.2211 26.9359 59.6532 27.4053C61.3771 29.287 63.5887 30.6951 63.6785 30.7543C63.9267 30.9108 64.2004 30.9827 64.4699 30.9827C64.9576 30.9827 65.4324 30.7459 65.7105 30.3103C66.1511 29.6337 65.95 28.7331 65.2656 28.2975L65.2784 28.306Z" fill="#262627"/>
<path d="M70.1892 8.38947C69.3764 8.38947 68.7134 9.04066 68.7134 9.84832V29.7817C68.7134 30.5852 69.3722 31.2406 70.1892 31.2406C71.0063 31.2406 71.665 30.5894 71.665 29.7817V9.84832C71.665 9.04489 71.0063 8.38947 70.1892 8.38947Z" fill="#262627"/>
<path d="M80.3447 18.4365C80.7939 18.0094 81.1661 17.5697 81.4741 17.151C81.7692 17.5358 82.1114 17.9249 82.5007 18.2928C84.1134 19.815 86.5004 20.6988 86.6031 20.7369C86.7699 20.8003 86.9453 20.8299 87.1164 20.8299C87.7153 20.8299 88.2757 20.4662 88.4981 19.8785C88.7804 19.1258 88.3954 18.2843 87.6297 18.0052C87.6083 17.9968 85.7047 17.2864 84.5369 16.1869C83.6643 15.3624 83.0953 14.3264 82.8686 13.8697V12.432H86.7442C87.557 12.432 88.2201 11.7808 88.2201 10.9731C88.2201 10.1655 87.5613 9.51427 86.7442 9.51427H76.0413C75.2285 9.51427 74.5655 10.1655 74.5655 10.9731C74.5655 11.7808 75.2243 12.432 76.0413 12.432H79.9169V13.9458C79.763 14.3433 79.2924 15.3962 78.2914 16.3476C77.0423 17.5401 75.3611 17.9502 75.3355 17.9545C74.5441 18.1363 74.0522 18.9144 74.2318 19.6966C74.3901 20.3732 74.9933 20.8299 75.6691 20.8299C75.7761 20.8299 75.8873 20.8172 75.9985 20.7918C76.1012 20.7707 78.4839 20.2168 80.3404 18.4408L80.3447 18.4365Z" fill="#262627"/>
<path d="M97.0921 13.1762H93.9907V9.84832C93.9907 9.04489 93.3319 8.38947 92.5149 8.38947C91.6978 8.38947 91.0391 9.04066 91.0391 9.84832V19.6501C91.0391 20.4535 91.6978 21.109 92.5149 21.109C93.3319 21.109 93.9907 20.4578 93.9907 19.6501V16.0897H97.0921C97.9048 16.0897 98.5679 15.4385 98.5679 14.6308C98.5679 13.8232 97.9091 13.172 97.0921 13.172V13.1762Z" fill="#262627"/>
<path d="M92.5147 22.3945C91.7019 22.3945 91.0388 23.0457 91.0388 23.8533V23.9168H78.8644V23.8533C78.8644 23.0499 78.2056 22.3945 77.3885 22.3945C76.5715 22.3945 75.9127 23.0457 75.9127 23.8533V29.7902C75.9127 30.5936 76.5715 31.2491 77.3885 31.2491H92.5104C93.3232 31.2491 93.9862 30.5979 93.9862 29.7902V23.8533C93.9862 23.0499 93.3274 22.3945 92.5104 22.3945H92.5147ZM78.8644 28.3314V26.8302H91.0388V28.3314H78.8644Z" fill="#262627"/>
<path d="M19.6819 28.8303L16.9227 19.7643L18.5782 20.1449C19.0787 20.2167 19.3824 19.6121 19.0188 19.2611L14.9721 15.8275C14.694 15.5611 14.232 15.6668 14.108 16.0305L12.692 21.3458C12.5252 21.8278 13.0899 22.2338 13.5048 21.9293L14.7368 20.7495L16.9612 28.7035L10.0527 35.799L3.38366 28.8092L7.92663 13.0366C7.98224 12.766 7.94802 12.4869 7.83252 12.2332L5.17176 6.51198L7.38335 2.60479H13.2396L15.3913 6.01724L13.2054 11.4932H11.5285C10.9553 11.4932 10.4077 11.8357 10.2366 12.377C9.95 13.2734 10.6216 14.098 11.49 14.098H14.1037C14.647 14.098 15.1304 13.7724 15.3314 13.2734L18.0478 6.4697C18.1761 6.14833 18.1718 5.7889 18.0307 5.47176L15.3143 0.782283C15.1047 0.308685 14.6299 0 14.108 0H6.49786C5.96314 0 5.47975 0.32137 5.2787 0.811883L2.51527 6.05107C2.37838 6.38512 2.38694 6.75724 2.53666 7.08707L5.25303 12.9352L0.658729 28.9572C0.573174 29.3716 0.697229 29.8029 0.992394 30.1116L9.07734 38.5898C9.32545 38.852 9.67195 39 10.0356 39C10.3949 39 10.7371 38.8562 10.9852 38.6025L19.3439 30.0185C19.6477 29.7056 19.776 29.2616 19.6819 28.8388V28.8303Z" fill="#935A9A"/>
<path d="M7.22084 25.9422H1.50577C0.671607 25.9422 0 25.3164 0 24.5426C0 23.7688 0.675885 23.1429 1.50577 23.1429H7.22084C8.055 23.1429 8.72661 23.7688 8.72661 24.5426C8.72661 25.3164 8.05073 25.9422 7.22084 25.9422Z" fill="#FFC874"/>
<path d="M100.297 30.9446C101.238 30.9446 102 30.1911 102 29.2616C102 28.3322 101.238 27.5787 100.297 27.5787C99.3571 27.5787 98.5948 28.3322 98.5948 29.2616C98.5948 30.1911 99.3571 30.9446 100.297 30.9446Z" fill="#FFC874"/>
</svg>
