<svg width="56" height="56" viewBox="0 0 56 56" fill="none" xmlns="http://www.w3.org/2000/svg">
<path d="M28.0001 7.58337C25.9889 7.58337 24.06 8.38233 22.6379 9.80448C21.2157 11.2266 20.4167 13.1555 20.4167 15.1667V29.1667C20.4167 31.1779 21.2157 33.1068 22.6379 34.5289C24.06 35.9511 25.9889 36.75 28.0001 36.75C30.0113 36.75 31.9402 35.9511 33.3623 34.5289C34.7845 33.1068 35.5834 31.1779 35.5834 29.1667V15.1667C35.5834 13.1555 34.7845 11.2266 33.3623 9.80448C31.9402 8.38233 30.0113 7.58337 28.0001 7.58337Z" fill="#B45EC9"/>
<path d="M18.0833 29.1666C18.0833 28.7025 17.8989 28.2574 17.5707 27.9292C17.2425 27.601 16.7974 27.4166 16.3333 27.4166C15.8691 27.4166 15.424 27.601 15.0958 27.9292C14.7676 28.2574 14.5833 28.7025 14.5833 29.1666C14.5832 32.4219 15.7666 35.5661 17.913 38.0135C20.0595 40.4608 23.0225 42.0444 26.2499 42.469V44.9166H20.9999C20.5358 44.9166 20.0907 45.101 19.7625 45.4292C19.4343 45.7574 19.2499 46.2025 19.2499 46.6666C19.2499 47.1308 19.4343 47.5759 19.7625 47.9041C20.0907 48.2323 20.5358 48.4166 20.9999 48.4166H34.9999C35.464 48.4166 35.9092 48.2323 36.2374 47.9041C36.5655 47.5759 36.7499 47.1308 36.7499 46.6666C36.7499 46.2025 36.5655 45.7574 36.2374 45.4292C35.9092 45.101 35.464 44.9166 34.9999 44.9166H29.7499V42.469C32.9774 42.0444 35.9404 40.4608 38.0868 38.0135C40.2332 35.5661 41.4167 32.4219 41.4166 29.1666C41.4166 28.7025 41.2322 28.2574 40.904 27.9292C40.5758 27.601 40.1307 27.4166 39.6666 27.4166C39.2025 27.4166 38.7573 27.601 38.4291 27.9292C38.101 28.2574 37.9166 28.7025 37.9166 29.1666C37.9166 31.7967 36.8718 34.319 35.0121 36.1788C33.1523 38.0385 30.63 39.0833 27.9999 39.0833C25.3699 39.0833 22.8475 38.0385 20.9878 36.1788C19.128 34.319 18.0833 31.7967 18.0833 29.1666Z" fill="#B45EC9"/>
</svg>
