<svg width="48" height="48" viewBox="0 0 48 48" fill="none" xmlns="http://www.w3.org/2000/svg">
<path d="M33.3333 33.2258L24 38.2417L14.6667 33.2258V28.7282C14.6667 28.2348 14.3942 27.7818 13.9584 27.5505V27.5505C13.0704 27.0791 12 27.7228 12 28.7282V33.5201C12 34.2564 12.4046 34.9332 13.0532 35.2818L22.5799 40.4015C23.4666 40.8781 24.5334 40.8781 25.4201 40.4015L34.9468 35.2818C35.5954 34.9332 36 34.2564 36 33.5201V28.7282C36 27.7228 34.9296 27.0791 34.0416 27.5505V27.5505C33.6058 27.7818 33.3333 28.2348 33.3333 28.7282V33.2258Z" fill="#B45EC9"/>
<path d="M25.38 8.54622C24.5147 8.0979 23.4854 8.0979 22.6201 8.54622L6.37524 16.962C5.7352 17.2936 5.33337 17.9543 5.33337 18.6751V18.6751C5.33337 19.3761 5.71354 20.0219 6.32641 20.3621L22.5441 29.3637C23.4497 29.8663 24.5504 29.8663 25.456 29.3637L40 21.2911V27.6482C40 28.2004 40.4478 28.6482 41 28.6482H41.6667C42.219 28.6482 42.6667 28.2004 42.6667 27.6482V19.3263C42.6667 18.2054 42.0419 17.1781 41.0467 16.6625L25.38 8.54622ZM37.3334 19.7234L34.6667 21.2035L24 27.1245L13.3334 21.2035L10.6667 19.7234L8.81846 18.6974L24 10.8325L39.1816 18.6974L37.3334 19.7234Z" fill="#B45EC9"/>
</svg>
