<svg width="48" height="48" viewBox="0 0 48 48" fill="none" xmlns="http://www.w3.org/2000/svg">
<path d="M36.6867 13.387C35.9537 12.6302 35.0833 12.0299 34.1254 11.6204C33.1675 11.2108 32.1407 11 31.1038 11C30.0669 11 29.0402 11.2108 28.0822 11.6204C27.1243 12.0299 26.254 12.6302 25.5209 13.387L23.9996 14.9568L22.4783 13.387C20.9976 11.8591 18.9894 11.0008 16.8954 11.0008C14.8014 11.0008 12.7932 11.8591 11.3125 13.387C9.83184 14.9149 9 16.9871 9 19.1478C9 21.3085 9.83184 23.3807 11.3125 24.9086L12.8338 26.4784L23.9996 38L35.1654 26.4784L36.6867 24.9086C37.4201 24.1522 38.0019 23.2541 38.3988 22.2657C38.7957 21.2772 39 20.2178 39 19.1478C39 18.0778 38.7957 17.0184 38.3988 16.0299C38.0019 15.0415 37.4201 14.1434 36.6867 13.387V13.387Z" stroke="#B45EC9" stroke-width="3" stroke-linecap="round" stroke-linejoin="round"/>
</svg>
