<svg width="48" height="48" viewBox="0 0 48 48" fill="none" xmlns="http://www.w3.org/2000/svg">
<path d="M11 35.245V19.991C11 19.5417 11.1065 19.1164 11.3194 18.7151C11.5324 18.3138 11.8258 17.9833 12.1997 17.7236L22.2004 10.5669C22.7241 10.189 23.3221 10 23.9944 10C24.6667 10 25.2684 10.189 25.7996 10.5669L35.8003 17.7218C36.1754 17.9815 36.4689 18.3126 36.6806 18.7151C36.8935 19.1164 37 19.5417 37 19.991V35.245C37 35.7154 36.8149 36.1254 36.4447 36.4753C36.0745 36.8251 35.6406 37 35.1429 37H28.8583C28.4324 37 28.0758 36.8643 27.7886 36.5928C27.5013 36.3202 27.3577 35.9833 27.3577 35.582V27.2126C27.3577 26.8113 27.2141 26.4749 26.9269 26.2035C26.6384 25.9309 26.2818 25.7946 25.8571 25.7946H22.1429C21.7182 25.7946 21.3622 25.9309 21.075 26.2035C20.7865 26.4749 20.6423 26.8113 20.6423 27.2126V35.5838C20.6423 35.9851 20.4987 36.3214 20.2114 36.5928C19.9242 36.8643 19.5682 37 19.1436 37H12.8571C12.3594 37 11.9255 36.8251 11.5553 36.4753C11.1851 36.1254 11 35.7154 11 35.245Z" stroke="#919191" stroke-width="3"/>
</svg>
