<svg width="48" height="48" viewBox="0 0 48 48" fill="none" xmlns="http://www.w3.org/2000/svg">
<path d="M23.7771 9.5C27.0777 9.50006 29.7361 12.155 29.7361 15.4082C29.736 18.6613 27.0777 21.3163 23.7771 21.3164C20.4765 21.3164 17.8182 18.6614 17.8181 15.4082C17.8181 12.155 20.4764 9.5 23.7771 9.5Z" stroke="#B45EC9" stroke-width="3"/>
<path d="M24.2158 26.4839C27.8842 26.4839 31.1383 27.4853 33.4316 29.0259C35.7344 30.5728 36.9316 32.5489 36.9316 34.5337C36.9316 34.777 36.8106 35.173 36.2686 35.6997C35.7269 36.226 34.8666 36.7751 33.6865 37.271C31.3338 38.2595 27.9846 38.9233 24.2158 38.9233C20.4047 38.9233 17.0532 38.385 14.7129 37.4644C12.2477 36.4946 11.5001 35.3775 11.5 34.5337C11.5 32.5489 12.6971 30.5729 15 29.0259C17.2934 27.4853 20.5474 26.4839 24.2158 26.4839Z" stroke="#B45EC9" stroke-width="3"/>
</svg>
