<svg width="20" height="20" viewBox="0 0 20 20" fill="none" xmlns="http://www.w3.org/2000/svg">
<path d="M18.3333 6.03343C18.3339 5.92376 18.3129 5.81504 18.2715 5.71351C18.23 5.61198 18.1689 5.51963 18.0916 5.44176L14.5583 1.90843C14.4804 1.83119 14.3881 1.77009 14.2866 1.72862C14.185 1.68715 14.0763 1.66613 13.9666 1.66676C13.857 1.66613 13.7482 1.68715 13.6467 1.72862C13.5452 1.77009 13.4528 1.83119 13.375 1.90843L11.0166 4.26676L1.90831 13.3751C1.83107 13.453 1.76997 13.5453 1.7285 13.6468C1.68703 13.7484 1.66601 13.8571 1.66664 13.9668V17.5001C1.66664 17.7211 1.75444 17.9331 1.91072 18.0894C2.067 18.2456 2.27896 18.3334 2.49997 18.3334H6.03331C6.14991 18.3398 6.26655 18.3215 6.37566 18.2799C6.48476 18.2383 6.5839 18.1742 6.66664 18.0918L15.725 8.98343L18.0916 6.66676C18.1676 6.5859 18.2295 6.49296 18.275 6.39176C18.283 6.32534 18.283 6.25819 18.275 6.19176C18.2789 6.15297 18.2789 6.11389 18.275 6.0751L18.3333 6.03343ZM5.69164 16.6668H3.33331V14.3084L11.6083 6.03343L13.9666 8.39176L5.69164 16.6668ZM15.1416 7.21676L12.7833 4.85843L13.9666 3.68343L16.3166 6.03343L15.1416 7.21676Z" fill="#B45EC9"/>
</svg>
