<svg width="184" height="71" viewBox="0 0 184 71" fill="none" xmlns="http://www.w3.org/2000/svg">
<path d="M94.1738 33.5553C94.1738 32.1128 92.9912 30.936 91.5244 30.936H85.0429V18.667C85.0429 17.2245 83.8602 16.0477 82.3934 16.0477C80.9267 16.0477 79.744 17.2169 79.744 18.667V42.3775C78.4231 43.6833 74.9213 46.7202 69.4228 48.2538C64.8611 49.5293 58.3412 49.8406 55.5075 49.9013V22.3341H71.8188C73.2779 22.3341 74.4682 21.1649 74.4682 19.7148C74.4682 18.2646 73.2855 17.0955 71.8188 17.0955H52.8581C51.3989 17.0955 50.2086 18.2646 50.2086 19.7148V52.4978C50.2086 53.8948 51.3145 55.0412 52.7275 55.1096C52.8197 55.1096 53.434 55.1399 54.44 55.1399C57.3045 55.1399 65.0224 54.9122 70.8511 53.2798C74.568 52.2397 77.5246 50.6453 79.7287 49.1345V54.4414C79.7287 55.884 80.9113 57.0607 82.3781 57.0607C83.8449 57.0607 85.0275 55.8916 85.0275 54.4414V36.1519H91.509C92.9681 36.1519 94.1585 34.9827 94.1585 33.5325L94.1738 33.5553Z" fill="#262627"/>
<path d="M117.189 51.8069C117.189 51.8069 113.634 49.5369 111.03 46.6898C108.995 44.4653 108.005 41.0868 107.759 40.1605V18.667C107.759 17.2245 106.576 16.0477 105.109 16.0477C103.643 16.0477 102.46 17.2169 102.46 18.667V40.1529C102.214 41.0792 101.224 44.4577 99.1885 46.6822C96.6005 49.5141 93.1063 51.7538 93.0295 51.7994C91.8008 52.5814 91.4399 54.1985 92.2309 55.4132C92.7377 56.1952 93.5902 56.6204 94.4656 56.6204C94.9571 56.6204 95.4486 56.4837 95.8863 56.2104C96.0553 56.1041 100.026 53.5759 103.113 50.1974C103.888 49.3471 104.549 48.4056 105.102 47.4566C105.662 48.4056 106.315 49.3471 107.091 50.1898C110.186 53.5683 114.156 56.0965 114.317 56.2028C114.763 56.4837 115.254 56.6128 115.738 56.6128C116.613 56.6128 117.466 56.1876 117.965 55.4057C118.756 54.1909 118.395 52.5738 117.166 51.7918L117.189 51.8069Z" fill="#262627"/>
<path d="M126.005 16.0477C124.546 16.0477 123.356 17.2169 123.356 18.667V54.4566C123.356 55.8991 124.539 57.0759 126.005 57.0759C127.472 57.0759 128.655 55.9067 128.655 54.4566V18.667C128.655 17.2245 127.472 16.0477 126.005 16.0477Z" fill="#262627"/>
<path d="M144.237 34.0868C145.043 33.32 145.711 32.5304 146.264 31.7788C146.794 32.4696 147.408 33.1681 148.107 33.8287C151.002 36.5618 155.287 38.1486 155.472 38.2169C155.771 38.3308 156.086 38.384 156.393 38.384C157.468 38.384 158.474 37.731 158.874 36.6757C159.381 35.3243 158.689 33.8135 157.315 33.3124C157.276 33.2972 153.859 32.0217 151.762 30.0477C150.196 28.5673 149.174 26.7072 148.767 25.8872V23.3059H155.725C157.184 23.3059 158.375 22.1367 158.375 20.6866C158.375 19.2365 157.192 18.0673 155.725 18.0673H136.511C135.052 18.0673 133.862 19.2365 133.862 20.6866C133.862 22.1367 135.044 23.3059 136.511 23.3059H143.469V26.0239C143.192 26.7375 142.347 28.628 140.55 30.3362C138.308 32.4772 135.29 33.2137 135.244 33.2213C133.823 33.5477 132.94 34.9447 133.263 36.3493C133.547 37.564 134.629 38.384 135.843 38.384C136.035 38.384 136.234 38.3612 136.434 38.3156C136.618 38.2777 140.896 37.2831 144.229 34.0944L144.237 34.0868Z" fill="#262627"/>
<path d="M174.302 24.6421H168.734V18.667C168.734 17.2245 167.552 16.0477 166.085 16.0477C164.618 16.0477 163.435 17.2169 163.435 18.667V36.2657C163.435 37.7083 164.618 38.885 166.085 38.885C167.552 38.885 168.734 37.7158 168.734 36.2657V29.8731H174.302C175.761 29.8731 176.951 28.7039 176.951 27.2538C176.951 25.8037 175.769 24.6345 174.302 24.6345V24.6421Z" fill="#262627"/>
<path d="M166.085 41.1931C164.626 41.1931 163.435 42.3623 163.435 43.8124V43.9262H141.579V43.8124C141.579 42.3698 140.397 41.1931 138.93 41.1931C137.463 41.1931 136.281 42.3623 136.281 43.8124V54.4718C136.281 55.9143 137.463 57.0911 138.93 57.0911H166.077C167.536 57.0911 168.726 55.9219 168.726 54.4718V43.8124C168.726 42.3698 167.544 41.1931 166.077 41.1931H166.085ZM141.579 51.8525V49.1573H163.435V51.8525H141.579Z" fill="#262627"/>
<path d="M35.3334 52.7484L30.3801 36.4707L33.3521 37.154C34.2506 37.2831 34.7959 36.1974 34.1431 35.5672L26.8783 29.4024C26.3791 28.9241 25.5497 29.1139 25.327 29.7668L22.7851 39.3102C22.4856 40.1757 23.4993 40.9045 24.2442 40.3579L26.4559 38.2397L30.4493 52.5206L18.0469 65.2603L6.07449 52.7104L14.2301 24.3915C14.33 23.9056 14.2685 23.4045 14.0612 22.949L9.28453 12.6768L13.2548 5.66159H23.7681L27.6309 11.7885L23.7066 21.6204H20.6963C19.6672 21.6204 18.6842 22.2353 18.3771 23.2071C17.8625 24.8167 19.0682 26.2972 20.6272 26.2972H25.3193C26.2946 26.2972 27.1624 25.7126 27.5234 24.8167L32.3998 12.6009C32.6302 12.0238 32.6226 11.3785 32.3691 10.8091L27.4926 2.38936C27.1163 1.53903 26.2639 0.984802 25.327 0.984802H11.6652C10.7052 0.984802 9.83745 1.56181 9.47652 2.4425L4.51555 11.8492C4.26981 12.449 4.28517 13.1171 4.55395 13.7093L9.43044 24.2093L1.18265 52.9761C1.02906 53.7202 1.25176 54.4946 1.78165 55.0488L16.2959 70.2711C16.7413 70.7419 17.3634 71.0076 18.0161 71.0076C18.6612 71.0076 19.2756 70.7494 19.721 70.2939L34.7267 54.8818C35.272 54.3199 35.5024 53.5228 35.3334 52.7635V52.7484Z" fill="#935A9A"/>
<path d="M12.963 47.5629H2.70319C1.20568 47.5629 0 46.4393 0 45.0499C0 43.6605 1.21336 42.5369 2.70319 42.5369H12.963C14.4605 42.5369 15.6662 43.6605 15.6662 45.0499C15.6662 46.4393 14.4528 47.5629 12.963 47.5629Z" fill="#FFC874"/>
<path d="M180.056 56.5445C181.744 56.5445 183.113 55.1916 183.113 53.5228C183.113 51.854 181.744 50.5011 180.056 50.5011C178.368 50.5011 177 51.854 177 53.5228C177 55.1916 178.368 56.5445 180.056 56.5445Z" fill="#FFC874"/>
</svg>
